<svg xmlns="http://www.w3.org/2000/svg" viewBox="0 0 800 560" preserveAspectRatio="xMidYMid slice">
  <defs>
    <linearGradient id="sky" x1="0" x2="0" y1="0" y2="1">
      <stop offset="0" stop-color="#c9d4dd"></stop>
      <stop offset=".55" stop-color="#dcd8cf"></stop>
      <stop offset="1" stop-color="#e3c9b3"></stop>
    </linearGradient>
    <linearGradient id="sea" x1="0" x2="0" y1="0" y2="1">
      <stop offset="0" stop-color="#9fb6c8"></stop>
      <stop offset="1" stop-color="#b8c8d4"></stop>
    </linearGradient>
    <linearGradient id="sand" x1="0" x2="0" y1="0" y2="1">
      <stop offset="0" stop-color="#d4c0a4"></stop>
      <stop offset="1" stop-color="#bfa688"></stop>
    </linearGradient>
    <radialGradient id="sun" cx="0.78" cy="0.42" r="0.18">
      <stop offset="0" stop-color="#f4dcb6" stop-opacity="1"></stop>
      <stop offset=".6" stop-color="#e9c79a" stop-opacity=".5"></stop>
      <stop offset="1" stop-color="#e9c79a" stop-opacity="0"></stop>
    </radialGradient>
  </defs>

  <rect x="0" y="0" width="800" height="340" fill="url(#sky)"></rect>
  <ellipse cx="624" cy="235" rx="240" ry="110" fill="url(#sun)"></ellipse>
  <circle cx="624" cy="235" r="22" fill="#f1d6ad" opacity=".9"></circle>

  <rect x="0" y="320" width="800" height="120" fill="url(#sea)"></rect>
  <ellipse cx="624" cy="340" rx="80" ry="6" fill="#e9c79a" opacity=".55"></ellipse>
  <ellipse cx="624" cy="358" rx="55" ry="3" fill="#e9c79a" opacity=".4"></ellipse>
  <ellipse cx="624" cy="372" rx="35" ry="2" fill="#e9c79a" opacity=".3"></ellipse>
  <g stroke="#aebcc8" stroke-width="1" fill="none" opacity=".55">
    <path d="M 30 360 q 30 -4 60 0 t 60 0 t 60 0 t 60 0"></path>
    <path d="M 180 380 q 30 -4 60 0 t 60 0 t 60 0"></path>
    <path d="M 60 410 q 30 -4 60 0 t 60 0 t 60 0 t 60 0 t 60 0 t 60 0"></path>
    <path d="M 320 425 q 30 -4 60 0 t 60 0 t 60 0"></path>
  </g>

  <rect x="0" y="430" width="800" height="40" fill="#c9c0b6"></rect>
  <ellipse cx="624" cy="440" rx="60" ry="4" fill="#e9c79a" opacity=".35"></ellipse>
  <rect x="0" y="465" width="800" height="100" fill="url(#sand)"></rect>

  <path d="M 0 510 Q 140 470 320 500 T 800 488 L 800 565 L 0 565 Z" fill="#c2a880"></path>
  <path d="M 0 530 Q 220 500 480 525 T 800 520 L 800 565 L 0 565 Z" fill="#a88e6a" opacity=".6"></path>

  <g stroke="#8a7a4e" stroke-width="1.2" fill="none">
    <g transform="translate(80,510)">
      <path d="M 0 0 q -3 -28 4 -52"></path><path d="M 6 0 q -1 -30 6 -56"></path><path d="M 12 0 q 1 -26 -2 -50"></path>
      <path d="M -4 0 q -5 -24 -2 -46"></path>
    </g>
    <g transform="translate(180,514)">
      <path d="M 0 0 q -3 -32 4 -58"></path><path d="M 6 0 q -1 -34 6 -62"></path><path d="M -4 0 q -5 -28 -2 -52"></path>
    </g>
    <g transform="translate(530,500)">
      <path d="M 0 0 q -3 -36 4 -64"></path><path d="M 7 0 q -1 -38 6 -68"></path><path d="M -5 0 q -5 -32 -2 -58"></path>
      <path d="M 13 0 q 2 -34 -3 -60"></path>
    </g>
    <g transform="translate(680,508)">
      <path d="M 0 0 q -3 -28 4 -52"></path><path d="M 6 0 q -1 -30 6 -56"></path><path d="M -4 0 q -5 -24 -2 -46"></path>
    </g>
  </g>
  <g fill="#c9a36b">
    <ellipse cx="84" cy="455" rx="2" ry="5"></ellipse>
    <ellipse cx="92" cy="453" rx="2" ry="5"></ellipse>
    <ellipse cx="184" cy="452" rx="2" ry="6"></ellipse>
    <ellipse cx="192" cy="450" rx="2" ry="6"></ellipse>
    <ellipse cx="534" cy="434" rx="2.2" ry="6.5"></ellipse>
    <ellipse cx="544" cy="430" rx="2.2" ry="6.5"></ellipse>
    <ellipse cx="525" cy="440" rx="2" ry="6"></ellipse>
    <ellipse cx="684" cy="452" rx="2" ry="6"></ellipse>
    <ellipse cx="692" cy="450" rx="2" ry="6"></ellipse>
  </g>

  <g stroke="#3f5260" stroke-width="2" fill="none" stroke-linecap="round">
    <path d="M 240 180 q 8 -6 16 0 q 8 -6 16 0"></path>
    <path d="M 320 145 q 6 -5 12 0 q 6 -5 12 0"></path>
    <path d="M 400 205 q 9 -6 18 0 q 9 -6 18 0"></path>
    <path d="M 470 175 q 6 -4 12 0 q 6 -4 12 0"></path>
    <path d="M 150 230 q 5 -4 10 0 q 5 -4 10 0"></path>
    <path d="M 540 245 q 7 -5 14 0 q 7 -5 14 0"></path>
  </g>

  <g transform="translate(380,448)">
    <ellipse cx="0" cy="0" rx="9" ry="5" fill="#2a3a48"></ellipse>
    <circle cx="6" cy="-3" r="3" fill="#2a3a48"></circle>
    <line x1="9" y1="-3" x2="14" y2="-2" stroke="#c47a7a" stroke-width="1.4"></line>
    <line x1="-2" y1="4" x2="-2" y2="9" stroke="#c47a7a" stroke-width="1"></line>
    <line x1="2" y1="4" x2="2" y2="9" stroke="#c47a7a" stroke-width="1"></line>
    <ellipse cx="-2" cy="0" rx="6" ry="3" fill="#eaeef1"></ellipse>
  </g>
  <g transform="translate(420,452)">
    <ellipse cx="0" cy="0" rx="8" ry="4.5" fill="#2a3a48"></ellipse>
    <circle cx="5" cy="-2.5" r="2.6" fill="#2a3a48"></circle>
    <line x1="7.5" y1="-2.5" x2="12" y2="-1.5" stroke="#c47a7a" stroke-width="1.3"></line>
    <line x1="-2" y1="3.5" x2="-2" y2="8" stroke="#c47a7a" stroke-width=".9"></line>
    <line x1="2" y1="3.5" x2="2" y2="8" stroke="#c47a7a" stroke-width=".9"></line>
    <ellipse cx="-2" cy="0" rx="5.5" ry="2.7" fill="#eaeef1"></ellipse>
  </g>

  <path d="M 100 305 l 2 -16 l 8 16 z" fill="#eaeef1" stroke="#8ea3b6" stroke-width=".6"></path>
</svg>